<svg xmlns="http://www.w3.org/2000/svg">
    <symbol id="trumbowyg-blockquote" viewBox="0 0 72 72">
        <path d="M21.3 31.9h-.6c.8-1.2 1.9-2.2 3.4-3.2 2.1-1.4 5-2.7 9.2-3.3l-1.4-8.9c-4.7.7-8.5 2.1-11.7 4-2.4 1.4-4.3 3.1-5.8 4.9-2.3 2.7-3.7 5.7-4.5 8.5-.8 2.8-1 5.4-1 7.5 0 2.3.3 4 .4 4.8 0 .1.1.3.1.4 1.2 5.4 6.1 9.5 11.9 9.5 6.7 0 12.2-5.4 12.2-12.2s-5.5-12-12.2-12zM49.5 31.9h-.6c.8-1.2 1.9-2.2 3.4-3.2 2.1-1.4 5-2.7 9.2-3.3l-1.4-8.9c-4.7.7-8.5 2.1-11.7 4-2.4 1.4-4.3 3.1-5.8 4.9-2.3 2.7-3.7 5.7-4.5 8.5-.8 2.8-1 5.4-1 7.5 0 2.3.3 4 .4 4.8 0 .1.1.3.1.4 1.2 5.4 6.1 9.5 11.9 9.5 6.7 0 12.2-5.4 12.2-12.2s-5.5-12-12.2-12z"/>
    </symbol>
    <symbol id="trumbowyg-bold" viewBox="0 0 72 72">
        <path d="M51.1 37.8c-1.1-1.4-2.5-2.5-4.2-3.3 1.2-.8 2.1-1.8 2.8-3 1-1.6 1.5-3.5 1.5-5.3 0-2-.6-4-1.7-5.8-1.1-1.8-2.8-3.2-4.8-4.1-2-.9-4.6-1.3-7.8-1.3h-16v42h16.3c2.6 0 4.8-.2 6.7-.7 1.9-.5 3.4-1.2 4.7-2.1 1.3-1 2.4-2.4 3.2-4.1.9-1.7 1.3-3.6 1.3-5.7.2-2.5-.5-4.7-2-6.6zM40.8 50.2c-.6.1-1.8.2-3.4.2h-9V38.5h8.3c2.5 0 4.4.2 5.6.6 1.2.4 2 1 2.7 2 .6.9 1 2 1 3.3 0 1.1-.2 2.1-.7 2.9-.5.9-1 1.5-1.7 1.9-.8.4-1.7.8-2.8 1zm2.6-20.4c-.5.7-1.3 1.3-2.5 1.6-.8.3-2.5.4-4.8.4h-7.7V21.6h7.1c1.4 0 2.6 0 3.6.1s1.7.2 2.2.4c1 .3 1.7.8 2.2 1.7.5.9.8 1.8.8 3-.1 1.3-.4 2.2-.9 3z"/>
    </symbol>
    <symbol id="trumbowyg-close" viewBox="0 0 72 72">
        <path d="M57 20.5l-5.4-5.4-15.5 15.5-15.6-15.5-5.4 5.4L30.7 36 15.1 51.5l5.4 5.4 15.6-15.5 15.5 15.5 5.4-5.4L41.5 36z"/>
    </symbol>
    <symbol id="trumbowyg-create-link" viewBox="0 0 72 72">
        <path d="M31.1 48.9l-6.7 6.7c-.8.8-1.6.9-2.1.9s-1.4-.1-2.1-.9L15 50.4c-1.1-1.1-1.1-3.1 0-4.2l6.1-6.1.2-.2 6.5-6.5c-1.2-.6-2.5-.9-3.8-.9-2.3 0-4.6.9-6.3 2.6L11 41.8c-3.5 3.5-3.5 9.2 0 12.7l5.2 5.2c1.7 1.7 4 2.6 6.3 2.6s4.6-.9 6.3-2.6l6.7-6.7c2.5-2.6 3.1-6.7 1.5-10l-5.9 5.9zM38.7 22.5l6.7-6.7c.8-.8 1.6-.9 2.1-.9s1.4.1 2.1.9l5.2 5.2c1.1 1.1 1.1 3.1 0 4.2l-6.1 6.1-.2.2L42 38c1.2.6 2.5.9 3.8.9 2.3 0 4.6-.9 6.3-2.6l6.7-6.7c3.5-3.5 3.5-9.2 0-12.7l-5.2-5.2c-1.7-1.7-4-2.6-6.3-2.6s-4.6.9-6.3 2.6l-6.7 6.7c-2.7 2.7-3.3 6.9-1.7 10.2l6.1-6.1c0 .1 0 .1 0 0z"/>
        <path d="M44.2 30.5c.2-.2.4-.6.4-.9 0-.3-.1-.6-.4-.9l-2.3-2.3c-.3-.2-.6-.4-.9-.4-.3 0-.6.1-.9.4L25.9 40.6c-.2.2-.4.6-.4.9 0 .3.1.6.4.9l2.3 2.3c.2.2.6.4.9.4.3 0 .6-.1.9-.4l14.2-14.2zM49.9 55.4h-8.5v-5h8.5v-8.9h5.2v8.9h8.5v5h-8.5v8.9h-5.2v-8.9z"/>
    </symbol>
    <symbol id="trumbowyg-del" viewBox="0 0 72 72">
        <path d="M45.8 45c0 1-.3 1.9-.9 2.8-.6.9-1.6 1.6-3 2.1s-3.1.8-5 .8c-2.1 0-4-.4-5.7-1.1-1.7-.7-2.9-1.7-3.6-2.7-.8-1.1-1.3-2.6-1.5-4.5l-.1-.8-6.7.6v.9c.1 2.8.9 5.4 2.3 7.6 1.5 2.3 3.5 4 6.1 5.1 2.6 1.1 5.7 1.6 9.4 1.6 2.9 0 5.6-.5 8-1.6 2.4-1.1 4.3-2.7 5.6-4.7 1.3-2 2-4.2 2-6.5 0-1.6-.3-3.1-.9-4.5l-.2-.6H44c0 .1 1.8 2.3 1.8 5.5zM29 28.9c-.8-.8-1.2-1.7-1.2-2.9 0-.7.1-1.3.4-1.9.3-.6.7-1.1 1.4-1.6.6-.5 1.4-.9 2.5-1.1 1.1-.3 2.4-.4 3.9-.4 2.9 0 5 .6 6.3 1.7 1.3 1.1 2.1 2.7 2.4 5.1l.1.9 6.8-.5v-.9c-.1-2.5-.8-4.7-2.1-6.7s-3.2-3.5-5.6-4.5c-2.4-1-5.1-1.5-8.1-1.5-2.8 0-5.3.5-7.6 1.4-2.3 1-4.2 2.4-5.4 4.3-1.2 1.9-1.9 3.9-1.9 6.1 0 1.7.4 3.4 1.2 4.9l.3.5h11.8c-2.3-.9-3.9-1.7-5.2-2.9zm13.3-6.2zM22.7 20.3zM13 34.1h46.1v3.4H13z"/>
    </symbol>
    <symbol id="trumbowyg-em" viewBox="0 0 72 72">
        <path d="M26 57l10.1-42h7.2L33.2 57H26z"/>
    </symbol>
    <symbol id="trumbowyg-fullscreen" viewBox="0 0 72 72">
        <path d="M25.2 7.1H7.1v17.7l6.7-6.5 10.5 10.5 4.5-4.5-10.4-10.5zM47.2 7.1l6.5 6.7-10.5 10.5 4.5 4.5 10.5-10.4 6.7 6.8V7.1zM47.7 43.2l-4.5 4.5 10.4 10.5-6.8 6.7h18.1V47.2l-6.7 6.5zM24.3 43.2L13.8 53.6l-6.7-6.8v18.1h17.7l-6.5-6.7 10.5-10.5z"/>
        <path fill="currentColor"
              d="M10.7 28.8h18.1V11.2l-6.6 6.4L11.6 7.1l-4.5 4.5 10.5 10.5zM60.8 28.8l-6.4-6.6 10.5-10.6-4.5-4.5-10.5 10.5-6.7-6.9v18.1zM60.4 64.9l4.5-4.5-10.5-10.5 6.9-6.7H43.2v17.6l6.6-6.4zM11.6 64.9l10.5-10.5 6.7 6.9V43.2H11.1l6.5 6.6L7.1 60.4z"/>
    </symbol>
    <symbol id="trumbowyg-h1" viewBox="0 0 72 72">
        <path d="M6.4 14.9h7.4v16.7h19.1V14.9h7.4V57h-7.4V38H13.8v19H6.4V14.9zM47.8 22.5c1.4 0 2.8-.1 4.1-.4 1.3-.2 2.5-.6 3.6-1.2 1.1-.5 2-1.3 2.8-2.1.8-.9 1.3-1.9 1.5-3.2h5.5v41.2h-7.4v-29H47.8v-5.3z"/>
    </symbol>
    <symbol id="trumbowyg-h2" viewBox="0 0 72 72">
        <path d="M1.5 14.9h7.4v16.7H28V14.9h7.4V57H28V38H8.8v19H1.5V14.9zM70.2 56.9H42c0-3.4.9-6.4 2.5-9s3.8-4.8 6.6-6.7c1.3-1 2.7-1.9 4.2-2.9 1.5-.9 2.8-1.9 4-3 1.2-1.1 2.2-2.2 3-3.4.8-1.2 1.2-2.7 1.2-4.3 0-.7-.1-1.5-.3-2.4s-.5-1.6-1-2.4c-.5-.7-1.2-1.3-2.1-1.8-.9-.5-2.1-.7-3.5-.7-1.3 0-2.4.3-3.3.8s-1.6 1.3-2.1 2.2-.9 2-1.2 3.3c-.3 1.3-.4 2.6-.4 4.1h-6.7c0-2.3.3-4.4.9-6.3.6-1.9 1.5-3.6 2.7-5 1.2-1.4 2.7-2.5 4.4-3.3 1.7-.8 3.8-1.2 6.1-1.2 2.5 0 4.6.4 6.3 1.2 1.7.8 3.1 1.9 4.1 3.1 1 1.3 1.8 2.6 2.2 4.1.4 1.5.6 2.9.6 4.2 0 1.6-.3 3.1-.8 4.5-.5 1.3-1.2 2.6-2.1 3.7-.9 1.1-1.8 2.2-2.9 3.1-1.1.9-2.2 1.8-3.4 2.7-1.2.8-2.4 1.6-3.5 2.4-1.2.7-2.3 1.5-3.3 2.2-1 .7-1.9 1.5-2.6 2.3-.7.8-1.3 1.7-1.5 2.6h20.1v5.9z"/>
    </symbol>
    <symbol id="trumbowyg-h3" viewBox="0 0 72 72">
        <path d="M1.4 14.5h7.4v16.7h19.1V14.5h7.4v42.1h-7.4v-19H8.8v19H1.4V14.5zM53.1 32.4c1.1 0 2.2 0 3.3-.2 1.1-.2 2.1-.5 2.9-1 .9-.5 1.6-1.2 2.1-2 .5-.9.8-1.9.8-3.2 0-1.8-.6-3.2-1.8-4.2-1.2-1.1-2.7-1.6-4.6-1.6-1.2 0-2.2.2-3.1.7-.9.5-1.6 1.1-2.2 1.9-.6.8-1 1.7-1.3 2.7-.3 1-.4 2-.4 3.1h-6.7c.1-2 .5-3.9 1.1-5.6.7-1.7 1.6-3.2 2.7-4.4s2.6-2.2 4.2-2.9c1.6-.7 3.5-1.1 5.6-1.1 1.6 0 3.2.2 4.7.7 1.6.5 2.9 1.2 4.2 2.1 1.2.9 2.2 2.1 3 3.4.7 1.4 1.1 3 1.1 4.8 0 2.1-.5 3.9-1.4 5.4-.9 1.6-2.4 2.7-4.4 3.4v.1c2.4.5 4.2 1.6 5.5 3.5 1.3 1.9 2 4.1 2 6.8 0 2-.4 3.7-1.2 5.3-.8 1.6-1.8 2.9-3.2 3.9-1.3 1.1-2.9 1.9-4.7 2.5-1.8.6-3.6.9-5.6.9-2.4 0-4.5-.3-6.3-1s-3.3-1.7-4.5-2.9c-1.2-1.3-2.1-2.8-2.7-4.5-.6-1.8-1-3.7-1-5.9h6.7c-.1 2.5.5 4.6 1.9 6.3 1.3 1.7 3.3 2.5 5.9 2.5 2.2 0 4.1-.6 5.6-1.9 1.5-1.3 2.3-3.1 2.3-5.4 0-1.6-.3-2.9-.9-3.8-.6-.9-1.5-1.7-2.5-2.2-1-.5-2.2-.8-3.4-.9-1.3-.1-2.6-.2-3.9-.1v-5.2z"/>
    </symbol>
    <symbol id="trumbowyg-h4" viewBox="0 0 72 72">
        <path d="M1.5 14.9h7.4v16.7H28V14.9h7.4V57H28V38H8.9v19H1.5V14.9zM70.5 47.2h-5.3V57h-6.4v-9.8H41.2v-6.7l17.7-24.8h6.4v26.2h5.3v5.3zm-24.2-5.3h12.5V23.7h-.1L46.3 41.9z"/>
    </symbol>
    <symbol id="trumbowyg-horizontal-rule" viewBox="0 0 72 72">
        <path d="M9.1 32h54v8h-54z"/>
    </symbol>
    <symbol id="trumbowyg-insert-image" viewBox="0 0 72 72">
        <path d="M64 17v38H8V17h56m8-8H0v54h72V9z"/>
        <path d="M17.5 22C15 22 13 24 13 26.5s2 4.5 4.5 4.5 4.5-2 4.5-4.5-2-4.5-4.5-4.5zM16 50h27L29.5 32zM36 36.2l8.9-8.5L60.2 50H45.9S35.6 35.9 36 36.2z"/>
    </symbol>
    <symbol id="trumbowyg-italic" viewBox="0 0 72 72">
        <path d="M26 57l10.1-42h7.2L33.2 57H26z"/>
    </symbol>
    <symbol id="trumbowyg-justify-center" viewBox="0 0 72 72">
        <path d="M9 14h54v8H9zM9 50h54v8H9zM18 32h36v8H18z"/>
    </symbol>
    <symbol id="trumbowyg-justify-full" viewBox="0 0 72 72">
        <path d="M9 14h54v8H9zM9 50h54v8H9zM9 32h54v8H9z"/>
    </symbol>
    <symbol id="trumbowyg-justify-left" viewBox="0 0 72 72">
        <path d="M9 14h54v8H9zM9 50h54v8H9zM9 32h36v8H9z"/>
    </symbol>
    <symbol id="trumbowyg-justify-right" viewBox="0 0 72 72">
        <path d="M9 14h54v8H9zM9 50h54v8H9zM27 32h36v8H27z"/>
    </symbol>
    <symbol id="trumbowyg-link" viewBox="0 0 72 72">
        <path d="M30.9 49.1l-6.7 6.7c-.8.8-1.6.9-2.1.9s-1.4-.1-2.1-.9l-5.2-5.2c-1.1-1.1-1.1-3.1 0-4.2l6.1-6.1.2-.2 6.5-6.5c-1.2-.6-2.5-.9-3.8-.9-2.3 0-4.6.9-6.3 2.6L10.8 42c-3.5 3.5-3.5 9.2 0 12.7l5.2 5.2c1.7 1.7 4 2.6 6.3 2.6s4.6-.9 6.3-2.6l6.7-6.7C38 50.5 38.6 46.3 37 43l-6.1 6.1zM38.5 22.7l6.7-6.7c.8-.8 1.6-.9 2.1-.9s1.4.1 2.1.9l5.2 5.2c1.1 1.1 1.1 3.1 0 4.2l-6.1 6.1-.2.2-6.5 6.5c1.2.6 2.5.9 3.8.9 2.3 0 4.6-.9 6.3-2.6l6.7-6.7c3.5-3.5 3.5-9.2 0-12.7l-5.2-5.2c-1.7-1.7-4-2.6-6.3-2.6s-4.6.9-6.3 2.6l-6.7 6.7c-2.7 2.7-3.3 6.9-1.7 10.2l6.1-6.1z"/>
        <path d="M44.1 30.7c.2-.2.4-.6.4-.9 0-.3-.1-.6-.4-.9l-2.3-2.3c-.2-.2-.6-.4-.9-.4-.3 0-.6.1-.9.4L25.8 40.8c-.2.2-.4.6-.4.9 0 .3.1.6.4.9l2.3 2.3c.2.2.6.4.9.4.3 0 .6-.1.9-.4l14.2-14.2z"/>
    </symbol>
    <symbol id="trumbowyg-ordered-list" viewBox="0 0 72 72">
        <path d="M27 14h36v8H27zM27 50h36v8H27zM27 32h36v8H27zM11.8 15.8V22h1.8v-7.8h-1.5l-2.1 1 .3 1.3zM12.1 38.5l.7-.6c1.1-1 2.1-2.1 2.1-3.4 0-1.4-1-2.4-2.7-2.4-1.1 0-2 .4-2.6.8l.5 1.3c.4-.3 1-.6 1.7-.6.9 0 1.3.5 1.3 1.1 0 .9-.9 1.8-2.6 3.3l-1 .9V40H15v-1.5h-2.9zM13.3 53.9c1-.4 1.4-1 1.4-1.8 0-1.1-.9-1.9-2.6-1.9-1 0-1.9.3-2.4.6l.4 1.3c.3-.2 1-.5 1.6-.5.8 0 1.2.3 1.2.8 0 .7-.8.9-1.4.9h-.7v1.3h.7c.8 0 1.6.3 1.6 1.1 0 .6-.5 1-1.4 1-.7 0-1.5-.3-1.8-.5l-.4 1.4c.5.3 1.3.6 2.3.6 2 0 3.2-1 3.2-2.4 0-1.1-.8-1.8-1.7-1.9z"/>
    </symbol>
    <symbol id="trumbowyg-p" viewBox="0 0 72 72">
        <path d="M47.8 15.1H30.1c-4.7 0-8.5 3.7-8.5 8.4s3.7 8.4 8.4 8.4v25h7V19.8h3v37.1h4.1V19.8h3.7v-4.7z"/>
    </symbol>
    <symbol id="trumbowyg-redo" viewBox="0 0 72 72">
        <path d="M10.8 51.2c0-5.1 2.1-9.7 5.4-13.1 3.3-3.3 8-5.4 13.1-5.4H46v-12L61.3 36 45.9 51.3V39.1H29.3c-3.3 0-6.4 1.3-8.5 3.5-2.2 2.2-3.5 5.2-3.5 8.5h-6.5z"/>
    </symbol>
    <symbol id="trumbowyg-removeformat" viewBox="0 0 72 72">
        <path d="M58.2 54.6L52 48.5l3.6-3.6 6.1 6.1 6.4-6.4 3.8 3.8-6.4 6.4 6.1 6.1-3.6 3.6-6.1-6.1-6.4 6.4-3.7-3.8 6.4-6.4zM21.7 52.1H50V57H21.7zM18.8 15.2h34.1v6.4H39.5v24.2h-7.4V21.5H18.8v-6.3z"/>
    </symbol>
    <symbol id="trumbowyg-strikethrough" viewBox="0 0 72 72">
        <path d="M45.8 45c0 1-.3 1.9-.9 2.8-.6.9-1.6 1.6-3 2.1s-3.1.8-5 .8c-2.1 0-4-.4-5.7-1.1-1.7-.7-2.9-1.7-3.6-2.7-.8-1.1-1.3-2.6-1.5-4.5l-.1-.8-6.7.6v.9c.1 2.8.9 5.4 2.3 7.6 1.5 2.3 3.5 4 6.1 5.1 2.6 1.1 5.7 1.6 9.4 1.6 2.9 0 5.6-.5 8-1.6 2.4-1.1 4.3-2.7 5.6-4.7 1.3-2 2-4.2 2-6.5 0-1.6-.3-3.1-.9-4.5l-.2-.6H44c0 .1 1.8 2.3 1.8 5.5zM29 28.9c-.8-.8-1.2-1.7-1.2-2.9 0-.7.1-1.3.4-1.9.3-.6.7-1.1 1.4-1.6.6-.5 1.4-.9 2.5-1.1 1.1-.3 2.4-.4 3.9-.4 2.9 0 5 .6 6.3 1.7 1.3 1.1 2.1 2.7 2.4 5.1l.1.9 6.8-.5v-.9c-.1-2.5-.8-4.7-2.1-6.7s-3.2-3.5-5.6-4.5c-2.4-1-5.1-1.5-8.1-1.5-2.8 0-5.3.5-7.6 1.4-2.3 1-4.2 2.4-5.4 4.3-1.2 1.9-1.9 3.9-1.9 6.1 0 1.7.4 3.4 1.2 4.9l.3.5h11.8c-2.3-.9-3.9-1.7-5.2-2.9zm13.3-6.2zM22.7 20.3zM13 34.1h46.1v3.4H13z"/>
    </symbol>
    <symbol id="trumbowyg-strong" viewBox="0 0 72 72">
        <path d="M51.1 37.8c-1.1-1.4-2.5-2.5-4.2-3.3 1.2-.8 2.1-1.8 2.8-3 1-1.6 1.5-3.5 1.5-5.3 0-2-.6-4-1.7-5.8-1.1-1.8-2.8-3.2-4.8-4.1-2-.9-4.6-1.3-7.8-1.3h-16v42h16.3c2.6 0 4.8-.2 6.7-.7 1.9-.5 3.4-1.2 4.7-2.1 1.3-1 2.4-2.4 3.2-4.1.9-1.7 1.3-3.6 1.3-5.7.2-2.5-.5-4.7-2-6.6zM40.8 50.2c-.6.1-1.8.2-3.4.2h-9V38.5h8.3c2.5 0 4.4.2 5.6.6 1.2.4 2 1 2.7 2 .6.9 1 2 1 3.3 0 1.1-.2 2.1-.7 2.9-.5.9-1 1.5-1.7 1.9-.8.4-1.7.8-2.8 1zm2.6-20.4c-.5.7-1.3 1.3-2.5 1.6-.8.3-2.5.4-4.8.4h-7.7V21.6h7.1c1.4 0 2.6 0 3.6.1s1.7.2 2.2.4c1 .3 1.7.8 2.2 1.7.5.9.8 1.8.8 3-.1 1.3-.4 2.2-.9 3z"/>
    </symbol>
    <symbol id="trumbowyg-subscript" viewBox="0 0 72 72">
        <path d="M32 15h7.8L56 57.1h-7.9L44.3 46H27.4l-4 11.1h-7.6L32 15zm-2.5 25.4h12.9L36 22.3h-.2l-6.3 18.1zM58.7 59.9c.6-1.4 2-2.8 4.1-4.4 1.9-1.3 3.1-2.3 3.7-2.9.8-.9 1.3-1.9 1.3-3 0-.9-.2-1.6-.7-2.2-.5-.6-1.2-.9-2.1-.9-1.2 0-2.1.5-2.5 1.4-.3.5-.4 1.4-.5 2.5h-4c.1-1.8.4-3.2 1-4.3 1.1-2.1 3-3.1 5.8-3.1 2.2 0 3.9.6 5.2 1.8 1.3 1.2 1.9 2.8 1.9 4.8 0 1.5-.5 2.9-1.4 4.1-.6.8-1.6 1.7-3 2.6L66 57.7c-1 .7-1.7 1.2-2.1 1.6-.4.3-.7.7-1 1.1H72V64H57.8c0-1.5.3-2.8.9-4.1z"/>
    </symbol>
    <symbol id="trumbowyg-superscript" viewBox="0 0 72 72">
        <path d="M32 15h7.8L56 57.1h-7.9l-4-11.1H27.4l-4 11.1h-7.6L32 15zm-2.5 25.4h12.9L36 22.3h-.2l-6.3 18.1zM49.6 28.8c.5-1.1 1.6-2.3 3.4-3.6 1.5-1.1 2.5-1.9 3-2.4.7-.7 1-1.6 1-2.4 0-.7-.2-1.3-.6-1.8-.4-.5-1-.7-1.7-.7-1 0-1.7.4-2.1 1.1-.2.4-.3 1.1-.4 2.1H49c.1-1.5.3-2.6.8-3.5.9-1.7 2.5-2.6 4.8-2.6 1.8 0 3.2.5 4.3 1.5 1.1 1 1.6 2.3 1.6 4 0 1.3-.4 2.4-1.1 3.4-.5.7-1.3 1.4-2.4 2.2l-1.3 1c-.8.6-1.4 1-1.7 1.3-.3.3-.6.6-.8.9h7.4v3H48.8c0-1.3.3-2.4.8-3.5z"/>
    </symbol>
    <symbol id="trumbowyg-table" viewBox="0 0 72 72">
        <path d="M25.686 51.38v-6.347q0-.462-.297-.76-.298-.297-.761-.297H14.04q-.463 0-.761.297-.298.298-.298.76v6.346q0 .463.298.76.298.298.76.298h10.589q.463 0 .76-.298.298-.297.298-.76zm0-12.692v-6.346q0-.463-.297-.76-.298-.298-.761-.298H14.04q-.463 0-.761.298-.298.297-.298.76v6.346q0 .462.298.76.298.297.76.297h10.589q.463 0 .76-.297.298-.298.298-.76zm16.94 12.691v-6.346q0-.462-.297-.76-.298-.297-.761-.297H30.98q-.463 0-.76.297-.299.298-.299.76v6.346q0 .463.298.76.298.298.761.298h10.588q.463 0 .76-.298.299-.297.299-.76zm-16.94-25.383v-6.345q0-.463-.297-.76-.298-.298-.761-.298H14.04q-.463 0-.761.297-.298.298-.298.76v6.346q0 .463.298.76.298.298.76.298h10.589q.463 0 .76-.298.298-.297.298-.76zm16.94 12.692v-6.346q0-.463-.297-.76-.298-.298-.761-.298H30.98q-.463 0-.76.298-.299.297-.299.76v6.346q0 .462.298.76.298.297.761.297h10.588q.463 0 .76-.297.299-.298.299-.76zm16.94 12.691v-6.346q0-.462-.297-.76-.298-.297-.76-.297H47.92q-.463 0-.76.297-.298.298-.298.76v6.346q0 .463.297.76.298.298.761.298h10.588q.463 0 .761-.298.298-.297.298-.76zm-16.94-25.383v-6.345q0-.463-.297-.76-.298-.298-.761-.298H30.98q-.463 0-.76.297-.299.298-.299.76v6.346q0 .463.298.76.298.298.761.298h10.588q.463 0 .76-.298.299-.297.299-.76zm16.94 12.692v-6.346q0-.463-.297-.76-.298-.298-.76-.298H47.92q-.463 0-.76.298-.298.297-.298.76v6.346q0 .462.297.76.298.297.761.297h10.588q.463 0 .761-.297.298-.298.298-.76zm0-12.692v-6.345q0-.463-.297-.76-.298-.298-.76-.298H47.92q-.463 0-.76.297-.298.298-.298.76v6.346q0 .463.297.76.298.298.761.298h10.588q.463 0 .761-.298.298-.297.298-.76zm4.236-10.576v35.96q0 2.18-1.555 3.734-1.555 1.553-3.739 1.553H14.04q-2.184 0-3.739-1.553-1.555-1.553-1.555-3.735V15.42q0-2.181 1.555-3.735 1.555-1.553 3.739-1.553h44.468q2.184 0 3.739 1.553 1.555 1.554 1.555 3.735z"/>
    </symbol>
    <symbol id="trumbowyg-underline" viewBox="0 0 72 72">
        <path d="M36 35zM15.2 55.9h41.6V59H15.2zM21.1 13.9h6.4v21.2c0 1.2.1 2.5.2 3.7.1 1.3.5 2.4 1 3.4.6 1 1.4 1.8 2.6 2.5 1.1.6 2.7 1 4.8 1 2.1 0 3.7-.3 4.8-1 1.1-.6 2-1.5 2.6-2.5.6-1 .9-2.1 1-3.4.1-1.3.2-2.5.2-3.7V13.9H51v23.3c0 2.3-.4 4.4-1.1 6.1-.7 1.7-1.7 3.2-3 4.4-1.3 1.2-2.9 2-4.7 2.6-1.8.6-3.9.9-6.1.9-2.2 0-4.3-.3-6.1-.9-1.8-.6-3.4-1.5-4.7-2.6-1.3-1.2-2.3-2.6-3-4.4-.7-1.7-1.1-3.8-1.1-6.1V13.9z"/>
    </symbol>
    <symbol id="trumbowyg-undo" viewBox="0 0 72 72">
        <path d="M61.2 51.2c0-5.1-2.1-9.7-5.4-13.1-3.3-3.3-8-5.4-13.1-5.4H26.1v-12L10.8 36l15.3 15.3V39.1h16.7c3.3 0 6.4 1.3 8.5 3.5 2.2 2.2 3.5 5.2 3.5 8.5h6.4z"/>
    </symbol>
    <symbol id="trumbowyg-unlink" viewBox="0 0 72 72">
        <path d="M30.9 49.1l-6.7 6.7c-.8.8-1.6.9-2.1.9s-1.4-.1-2.1-.9l-5.2-5.2c-1.1-1.1-1.1-3.1 0-4.2l6.1-6.1.2-.2 6.5-6.5c-1.2-.6-2.5-.9-3.8-.9-2.3 0-4.6.9-6.3 2.6L10.8 42c-3.5 3.5-3.5 9.2 0 12.7l5.2 5.2c1.7 1.7 4 2.6 6.3 2.6s4.6-.9 6.3-2.6l6.7-6.7C38 50.5 38.6 46.3 37 43l-6.1 6.1zM38.5 22.7l6.7-6.7c.8-.8 1.6-.9 2.1-.9s1.4.1 2.1.9l5.2 5.2c1.1 1.1 1.1 3.1 0 4.2l-6.1 6.1-.2.2-6.5 6.5c1.2.6 2.5.9 3.8.9 2.3 0 4.6-.9 6.3-2.6l6.7-6.7c3.5-3.5 3.5-9.2 0-12.7l-5.2-5.2c-1.7-1.7-4-2.6-6.3-2.6s-4.6.9-6.3 2.6l-6.7 6.7c-2.7 2.7-3.3 6.9-1.7 10.2l6.1-6.1z"/>
        <path d="M44.1 30.7c.2-.2.4-.6.4-.9 0-.3-.1-.6-.4-.9l-2.3-2.3c-.2-.2-.6-.4-.9-.4-.3 0-.6.1-.9.4L25.8 40.8c-.2.2-.4.6-.4.9 0 .3.1.6.4.9l2.3 2.3c.2.2.6.4.9.4.3 0 .6-.1.9-.4l14.2-14.2zM41.3 55.8v-5h22.2v5H41.3z"/>
    </symbol>
    <symbol id="trumbowyg-unordered-list" viewBox="0 0 72 72">
        <path d="M27 14h36v8H27zM27 50h36v8H27zM9 50h9v8H9zM9 32h9v8H9zM9 14h9v8H9zM27 32h36v8H27z"/>
    </symbol>
    <symbol id="trumbowyg-view-html" viewBox="0 0 72 72">
        <path fill="none" stroke="currentColor" stroke-width="8" stroke-miterlimit="10"
              d="M26.9 17.9L9 36.2 26.9 54M45 54l17.9-18.3L45 17.9"/>
    </symbol>
    <symbol id="trumbowyg-base64" viewBox="0 0 72 72">
        <path d="M64 17v38H8V17h56m8-8H0v54h72V9z"/>
        <path d="M29.9 28.9c-.5-.5-1.1-.8-1.8-.8s-1.4.2-1.9.7c-.5.4-.9 1-1.2 1.6-.3.6-.5 1.3-.6 2.1-.1.7-.2 1.4-.2 1.9l.1.1c.6-.8 1.2-1.4 2-1.8.8-.4 1.7-.5 2.7-.5.9 0 1.8.2 2.6.6.8.4 1.6.9 2.2 1.5.6.6 1 1.3 1.2 2.2.3.8.4 1.6.4 2.5 0 1.1-.2 2.1-.5 3-.3.9-.8 1.7-1.5 2.4-.6.7-1.4 1.2-2.3 1.6-.9.4-1.9.6-3 .6-1.6 0-2.8-.3-3.9-.9-1-.6-1.8-1.4-2.5-2.4-.6-1-1-2.1-1.3-3.4-.2-1.3-.4-2.6-.4-3.9 0-1.3.1-2.6.4-3.8.3-1.3.8-2.4 1.4-3.5.7-1 1.5-1.9 2.5-2.5 1-.6 2.3-1 3.8-1 .9 0 1.7.1 2.5.4.8.3 1.4.6 2 1.1.6.5 1.1 1.1 1.4 1.8.4.7.6 1.5.7 2.5h-4c0-1-.3-1.6-.8-2.1zm-3.5 6.8c-.4.2-.8.5-1 .8-.3.4-.5.8-.6 1.2-.1.5-.2 1-.2 1.5s.1.9.2 1.4c.1.5.4.9.6 1.2.3.4.6.7 1 .9.4.2.9.3 1.4.3.5 0 1-.1 1.3-.3.4-.2.7-.5 1-.9.3-.4.5-.8.6-1.2.1-.5.2-.9.2-1.4 0-.5-.1-1-.2-1.4-.1-.5-.3-.9-.6-1.2-.3-.4-.6-.7-1-.9-.4-.2-.9-.3-1.4-.3-.4 0-.9.1-1.3.3zM36.3 41.3v-3.8l9-12.1H49v12.4h2.7v3.5H49v4.8h-4v-4.8h-8.7zM45 30.7l-5.3 7.2h5.4l-.1-7.2z"/>
    </symbol>
    <symbol id="trumbowyg-emoji" viewBox="0 0 72 72">
        <path d="M36.05 9C21.09 9 8.949 21.141 8.949 36.101c0 14.96 12.141 27.101 27.101 27.101 14.96 0 27.101-12.141 27.101-27.101S51.01 9 36.05 9zm9.757 15.095c2.651 0 4.418 1.767 4.418 4.418s-1.767 4.418-4.418 4.418-4.418-1.767-4.418-4.418 1.767-4.418 4.418-4.418zm-19.479 0c2.651 0 4.418 1.767 4.418 4.418s-1.767 4.418-4.418 4.418-4.418-1.767-4.418-4.418 1.767-4.418 4.418-4.418zm9.722 30.436c-14.093 0-16.261-13.009-16.261-13.009h32.522S50.143 54.531 36.05 54.531z"/>
    </symbol>
    <symbol id="trumbowyg-back-color" viewBox="0 0 72 72">
        <path d="M36.5 22.3l-6.3 18.1H43l-6.3-18.1z"/>
        <path d="M9 8.9v54.2h54.1V8.9H9zm39.9 48.2L45 46H28.2l-3.9 11.1h-7.6L32.8 15h7.8l16.2 42.1h-7.9z"/>
    </symbol>
    <symbol id="trumbowyg-fore-color" viewBox="0 0 72 72">
        <path d="M32 15h7.8L56 57.1h-7.9l-4-11.1H27.4l-4 11.1h-7.6L32 15zm-2.5 25.4h12.9L36 22.3h-.2l-6.3 18.1z"/>
    </symbol>
    <symbol id="trumbowyg-insert-audio" viewBox="0 0 8 8">
        <path d="M3.344 0L2 2H0v4h2l1.344 2H4V0h-.656zM5 1v1c.152 0 .313.026.469.063H5.5c.86.215 1.5.995 1.5 1.938a1.99 1.99 0 0 1-2 2.001v1a2.988 2.988 0 0 0 3-3 2.988 2.988 0 0 0-3-3zm0 2v2l.25-.031C5.683 4.851 6 4.462 6 4c0-.446-.325-.819-.75-.938v-.031h-.031L5 3z"/>
    </symbol>
    <symbol id="trumbowyg-noembed" viewBox="0 0 72 72">
        <path d="M31.5 33.6V25l11 11-11 11v-8.8z"/>
        <path d="M64 17v38H8V17h56m8-8H0v54h72V9z"/>
    </symbol>
    <symbol id="trumbowyg-preformatted" viewBox="0 0 72 72">
        <path d="M10.3 33.5c.4 0 .9-.1 1.5-.2s1.2-.3 1.8-.7c.6-.3 1.1-.8 1.5-1.3.4-.5.6-1.3.6-2.1V17.1c0-1.4.3-2.6.8-3.6s1.2-1.9 2-2.5c.8-.7 1.6-1.2 2.5-1.5.9-.3 1.6-.5 2.2-.5h5.3v5.3h-3.2c-.7 0-1.3.1-1.8.4-.4.3-.8.6-1 1-.2.4-.4.9-.4 1.3-.1.5-.1.9-.1 1.4v11.4c0 1.2-.2 2.1-.7 2.9-.5.8-1 1.4-1.7 1.8-.6.4-1.3.8-2 1-.7.2-1.3.3-1.7.4v.1c.5 0 1 .1 1.7.3.7.2 1.3.5 2 .9.6.5 1.2 1.1 1.7 1.9.5.8.7 2 .7 3.4v11.1c0 .4 0 .9.1 1.4.1.5.2.9.4 1.3s.6.7 1 1c.4.3 1 .4 1.8.4h3.2V63h-5.3c-.6 0-1.4-.2-2.2-.5-.9-.3-1.7-.8-2.5-1.5s-1.4-1.5-2-2.5c-.5-1-.8-2.2-.8-3.6V43.5c0-.9-.2-1.7-.6-2.3-.4-.6-.9-1.1-1.5-1.5-.6-.4-1.2-.6-1.8-.7-.6-.1-1.1-.2-1.5-.2v-5.3zM61.8 38.7c-.4 0-1 .1-1.6.2-.6.1-1.2.4-1.8.7-.6.3-1.1.7-1.5 1.3-.4.5-.6 1.3-.6 2.1v12.1c0 1.4-.3 2.6-.8 3.6s-1.2 1.9-2 2.5c-.8.7-1.6 1.2-2.5 1.5-.9.3-1.6.5-2.2.5h-5.3v-5.3h3.2c.7 0 1.3-.1 1.8-.4.4-.3.8-.6 1-1 .2-.4.4-.9.4-1.3.1-.5.1-.9.1-1.4V42.3c0-1.2.2-2.1.7-2.9.5-.8 1-1.4 1.7-1.8.6-.4 1.3-.8 2-1 .7-.2 1.3-.3 1.7-.4v-.1c-.5 0-1-.1-1.7-.3-.7-.2-1.3-.5-2-.9-.6-.4-1.2-1.1-1.7-1.9-.5-.8-.7-2-.7-3.4V18.5c0-.4 0-.9-.1-1.4-.1-.5-.2-.9-.4-1.3s-.6-.7-1-1c-.4-.3-1-.4-1.8-.4h-3.2V9.1h5.3c.6 0 1.4.2 2.2.5.9.3 1.7.8 2.5 1.5s1.4 1.5 2 2.5c.5 1 .8 2.2.8 3.6v11.6c0 .9.2 1.7.6 2.3.4.6.9 1.1 1.5 1.5.6.4 1.2.6 1.8.7.6.1 1.2.2 1.6.2v5.2z"/>
    </symbol>
    <symbol id="trumbowyg-upload" viewBox="0 0 72 72">
        <path d="M64 27v28H8V27H0v36h72V27h-8z"/>
        <path d="M32.1 6.7h8v33.6h-8z"/>
        <path d="M48 35.9L36 49.6 24 36h24z"/>
    </symbol>
    <symbol id="trumbowyg-insert-image-from-server" width="56.089px" height="56.089px" viewBox="0 0 56.089 56.089">
        <g>
            <g>
                <path d="M33.125,17.771c-0.271-0.365-0.881-0.365-1.15,0l-6.858,9.347l-3.93-5.354c-0.135-0.185-0.35-0.292-0.576-0.292
					s-0.441,0.107-0.576,0.292l-8.791,11.979c-0.158,0.219-0.182,0.506-0.061,0.745s0.367,0.392,0.635,0.392h32.45
					c0.27,0,0.516-0.15,0.637-0.392c0.121-0.239,0.099-0.526-0.061-0.745L33.125,17.771z M22.946,27.423
					c-0.032,0.148-0.127,0.275-0.262,0.353l-0.697,0.391c-0.178,0.099-0.396,0.091-0.565-0.026l-0.701-0.485l-0.748,0.491
					c-0.09,0.062-0.191,0.09-0.295,0.09c-0.086,0-0.177-0.021-0.256-0.062l-0.777-0.425c-0.135-0.074-0.232-0.2-0.268-0.351
					c-0.035-0.147-0.005-0.306,0.084-0.431l1.735-2.456c0.103-0.143,0.262-0.228,0.437-0.228h0.002c0.172,0,0.334,0.083,0.434,0.224
					l1.791,2.487C22.948,27.117,22.981,27.272,22.946,27.423z M34.855,23.454c-0.033,0.147-0.128,0.274-0.261,0.351l-0.698,0.391
					c-0.179,0.1-0.396,0.089-0.566-0.025l-0.703-0.486l-0.746,0.492c-0.088,0.061-0.191,0.088-0.295,0.088
					c-0.086,0-0.176-0.021-0.254-0.063l-0.779-0.424c-0.135-0.074-0.232-0.2-0.268-0.35c-0.033-0.148-0.004-0.305,0.084-0.431
					l1.736-2.456c0.1-0.142,0.262-0.226,0.436-0.229l0,0c0.172,0,0.334,0.084,0.436,0.225l1.791,2.488
					C34.857,23.147,34.888,23.305,34.855,23.454z"/>
                <path d="M11.479,17.916c0.008,0.048,0.037,0.09,0.08,0.113c0.041,0.023,0.092,0.027,0.137,0.012l0.879-0.337l0.59,0.729
					c0.031,0.038,0.078,0.06,0.125,0.06c0.052,0,0.097-0.021,0.127-0.06l0.593-0.729l0.879,0.337c0.045,0.017,0.096,0.014,0.137-0.012
					c0.043-0.023,0.072-0.065,0.08-0.113l0.146-0.929l0.932-0.146c0.047-0.008,0.09-0.037,0.113-0.079
					c0.022-0.043,0.026-0.093,0.01-0.139l-0.336-0.879l0.729-0.592c0.039-0.03,0.063-0.077,0.063-0.125
					c0-0.05-0.023-0.096-0.063-0.125l-0.729-0.592l0.336-0.878c0.018-0.045,0.014-0.097-0.01-0.139
					c-0.024-0.042-0.066-0.071-0.113-0.079l-0.932-0.146l-0.146-0.928c-0.008-0.048-0.037-0.09-0.08-0.114
					c-0.041-0.023-0.092-0.028-0.137-0.012l-0.879,0.337l-0.593-0.73c-0.062-0.075-0.188-0.075-0.25,0l-0.592,0.73l-0.877-0.337
					c-0.045-0.017-0.096-0.013-0.139,0.012c-0.043,0.025-0.072,0.066-0.078,0.114l-0.148,0.928l-0.928,0.146
					c-0.049,0.008-0.09,0.037-0.115,0.079c-0.022,0.042-0.026,0.093-0.01,0.139l0.336,0.878l-0.729,0.592
					c-0.039,0.03-0.062,0.076-0.062,0.125c0,0.048,0.021,0.095,0.062,0.125l0.729,0.592l-0.336,0.879
					c-0.018,0.045-0.014,0.096,0.01,0.139c0.025,0.042,0.066,0.071,0.115,0.079l0.928,0.146L11.479,17.916z"/>
                <path d="M38.583,45.821c-0.021-0.036-0.044-0.08-0.068-0.124c-0.209-0.381-0.769-1.395-1.959-1.395H19.562
					c-1.186,0-1.67,0.879-1.904,1.303c-0.043,0.072-0.086,0.152-0.096,0.175l-2.354,3.347l-0.076,0.122
					c-0.313,0.565-0.306,1.233,0.021,1.786c0.451,0.766,1.357,1.105,2.058,1.105h21.695c0.902,0,1.658-0.59,2.011-1.176
					c0.327-0.551,0.354-1.188,0.075-1.707L38.583,45.821z"/>
                <path d="M51.773,3.949H4.315C1.936,3.949,0,5.887,0,8.265v29.98c0,2.38,1.938,4.313,4.315,4.313h47.458
					c2.379,0,4.315-1.936,4.315-4.313V8.265C56.087,5.887,54.152,3.949,51.773,3.949z M50.9,39.718c-0.339,0-0.613-0.274-0.613-0.615
					c0-0.338,0.272-0.612,0.613-0.612c0.34,0,0.614,0.272,0.614,0.612C51.515,39.444,51.24,39.718,50.9,39.718z M52.517,36.167
					c0-0.065-0.021-0.126-0.036-0.188c-0.087,0.318-0.363,0.561-0.707,0.561H4.313c-0.344,0-0.621-0.24-0.707-0.561
					c-0.016,0.062-0.037,0.121-0.037,0.188v-27.9c0-0.411,0.334-0.745,0.744-0.745h47.458c0.41,0,0.744,0.334,0.744,0.745
					L52.517,36.167L52.517,36.167z"/>
                <path d="M46.013,17.862l1.998-0.53c0.356-0.094,0.617-0.405,0.644-0.777c0.026-0.37-0.187-0.717-0.527-0.859l-8.592-3.606
					c-0.324-0.138-0.699-0.063-0.949,0.187c-0.248,0.25-0.322,0.624-0.186,0.949l3.606,8.591c0.144,0.343,0.489,0.557,0.858,0.528
					c0.373-0.023,0.687-0.285,0.775-0.644l0.531-1.997l3.018,3.018c0.338,0.338,0.889,0.338,1.228,0l0.61-0.613
					c0.342-0.339,0.342-0.888,0-1.227L46.013,17.862z"/>
            </g>
        </g>
    </symbol>
    <symbol id="trumbowyg-insert-facebook-album" viewBox="0 0 72 72">
        <path d="M57.378,0.001H3.352C1.502,0.001,0,1.5,0,3.353v54.026c0,1.853,1.502,3.354,3.352,3.354h29.086V37.214h-7.914v-9.167h7.914
		v-6.76c0-7.843,4.789-12.116,11.787-12.116c3.355,0,6.232,0.251,7.071,0.36v8.198l-4.854,0.002c-3.805,0-4.539,1.809-4.539,4.462
		v5.851h9.078l-1.187,9.166h-7.892v23.52h15.475c1.852,0,3.355-1.503,3.355-3.351V3.351C60.731,1.5,59.23,0.001,57.378,0.001z"/>
    </symbol>
    <symbol id="trumbowyg-file-embed" viewBox="0 0 512 512">
        <g>
            <g>
                <path d="M447.933,103.629c-0.034-3.076-1.224-6.09-3.485-8.352L352.683,3.511c-0.004-0.004-0.007-0.005-0.011-0.008
					C350.505,1.338,347.511,0,344.206,0H89.278C75.361,0,64.04,11.32,64.04,25.237v461.525c0,13.916,11.32,25.237,25.237,25.237
					h333.444c13.916,0,25.237-11.32,25.237-25.237V103.753C447.96,103.709,447.937,103.672,447.933,103.629z M356.194,40.931
					l50.834,50.834h-49.572c-0.695,0-1.262-0.567-1.262-1.262V40.931z M423.983,486.763c0,0.695-0.566,1.261-1.261,1.261H89.278
					c-0.695,0-1.261-0.566-1.261-1.261V25.237c0-0.695,0.566-1.261,1.261-1.261h242.94v66.527c0,13.916,11.322,25.239,25.239,25.239
					h66.527V486.763z"/>
            </g>
        </g>
        <g>
            <g>
                <path d="M362.088,164.014H149.912c-6.62,0-11.988,5.367-11.988,11.988c0,6.62,5.368,11.988,11.988,11.988h212.175
					c6.62,0,11.988-5.368,11.988-11.988C374.076,169.381,368.707,164.014,362.088,164.014z"/>
            </g>
        </g>
        <g>
            <g>
                <path d="M362.088,236.353H149.912c-6.62,0-11.988,5.368-11.988,11.988c0,6.62,5.368,11.988,11.988,11.988h212.175
					c6.62,0,11.988-5.368,11.988-11.988C374.076,241.721,368.707,236.353,362.088,236.353z"/>
            </g>
        </g>
        <g>
            <g>
                <path d="M362.088,308.691H149.912c-6.62,0-11.988,5.368-11.988,11.988c0,6.621,5.368,11.988,11.988,11.988h212.175
					c6.62,0,11.988-5.367,11.988-11.988C374.076,314.06,368.707,308.691,362.088,308.691z"/>
            </g>
        </g>
        <g>
            <g>
                <path d="M256,381.031H149.912c-6.62,0-11.988,5.368-11.988,11.988c0,6.621,5.368,11.988,11.988,11.988H256
					c6.62,0,11.988-5.367,11.988-11.988C267.988,386.398,262.62,381.031,256,381.031z"/>
            </g>
        </g>
    </symbol>
    <symbol id="trumbowyg-mathml" viewBox="0 0 445.878 445.878">
        <g>
            <path d="M426.024,86.447H209.705l-84.911,298.911c-2.568,7.967-9.854,13.482-18.22,13.771c-0.236,0-0.464,0.006-0.688,0.006
                c-8.092,0-15.41-4.924-18.436-12.478l-34.714-86.782H19.851C8.884,299.876,0,290.986,0,280.022
                c0-10.965,8.893-19.854,19.851-19.854H66.18c8.109,0,15.421,4.941,18.436,12.483l19.237,48.09l72.472-260.218
                c2.639-8.213,10.279-13.781,18.903-13.781h230.798c10.97,0,19.854,8.89,19.854,19.851S436.988,86.447,426.024,86.447z
                M436.723,353.227l-78.259-87.904l74.576-82.783c1.318-1.454,1.638-3.547,0.857-5.341c-0.804-1.791-2.577-2.946-4.54-2.946h-47.18
                c-1.442,0-2.802,0.629-3.759,1.72l-50.059,58.047l-49.674-58.029c-0.939-1.103-2.317-1.738-3.771-1.738h-49.334
                c-1.956,0-3.729,1.149-4.521,2.929c-0.81,1.785-0.479,3.875,0.824,5.332l73.743,82.81l-77.641,87.923
                c-1.297,1.465-1.605,3.552-0.813,5.325c0.813,1.785,2.586,2.92,4.528,2.92h48.9c1.472,0,2.867-0.65,3.807-1.785l51.819-62.181
                l53.05,62.229c0.951,1.11,2.328,1.743,3.782,1.743h49.97c1.962,0,3.735-1.141,4.527-2.926
                C438.354,356.779,438.035,354.692,436.723,353.227z"/>
        </g>
    </symbol>
    <symbol id="trumbowyg-lineheight" viewBox="0 0 72 72">
        <path fill="currentColor" d="M31 14h36v8H31zM31 50h36v8H31zM31 32h30v8H31z"/>
        <path fill="none" stroke="currentColor" stroke-miterlimit="10" stroke-width="3.6428" d="M7.8195 47.2068l8.333 8.1507 8.1051-8.1507M24.2756 24.6348l-8.3329-8.1507-8.1052 8.1507"/>
        <path fill="currentColor" d="M14.3475 53.7613v-36h3.3847v36z"/>
    </symbol>
    <symbol id="trumbowyg-fontsize" viewBox="0 0 24 24">
        <path d="M9 4v3h5v12h3V7h5V4H9zm-6 8h3v7h3v-7h3V9H3v3z"/>
    </symbol>

</svg>