<svg xmlns="http://www.w3.org/2000/svg" xmlns:xlink="http://www.w3.org/1999/xlink" viewBox="0 0 836.92 840.56"><defs><style>.cls-1,.cls-5,.cls-8{fill:none;}.cls-2{fill:#e95e45;}.cls-3{clip-path:url(#clip-path);}.cls-4{fill:#fff;}.cls-5,.cls-8,.cls-9{stroke:#fff;stroke-miterlimit:10;}.cls-5{stroke-width:6px;}.cls-6{clip-path:url(#clip-path-2);}.cls-7{clip-path:url(#clip-path-3);}.cls-8,.cls-9{stroke-linecap:round;stroke-width:4px;}.cls-9{fill:#1170b3;}</style><clipPath id="clip-path"><rect class="cls-1" x="314.13" y="99.65" width="107.04" height="107.04"/></clipPath><clipPath id="clip-path-2"><rect class="cls-1" x="301.98" y="617.34" width="107.04" height="107.04"/></clipPath><clipPath id="clip-path-3"><rect class="cls-1" x="269.46" y="225.65" width="145.46" height="145.46" transform="translate(684.38 596.75) rotate(-180)"/></clipPath></defs><title>SynthesisMindstorm Icon</title><g id="Warstwa_2" data-name="Warstwa 2"><g id="SynthesisMindStorm_Logo" data-name="SynthesisMindStorm Logo"><path class="cls-2" d="M427.93,6.71a99.65,99.65,0,0,0-46.65,11.53,95.15,95.15,0,0,0-147,61A128.44,128.44,0,0,0,90.45,207a128,128,0,0,0,14.76,59.81,158.89,158.89,0,0,0,4.6,300.66A128.61,128.61,0,0,0,219,764a129.77,129.77,0,0,0,15.25-.93,95.15,95.15,0,0,0,147,61,100.12,100.12,0,0,0,146.82-88.56V106.84A100.12,100.12,0,0,0,427.93,6.71Z"/><g class="cls-3"><path class="cls-4" d="M421.17,0a99.65,99.65,0,1,0,99.65,99.65A99.65,99.65,0,0,0,421.17,0Zm0,175.52A75.86,75.86,0,1,1,497,99.65,75.86,75.86,0,0,1,421.17,175.52Z"/></g><path class="cls-4" d="M421.17,52.36a47.29,47.29,0,1,0,47.29,47.29A47.29,47.29,0,0,0,421.17,52.36Zm0,76.64a29.35,29.35,0,1,1,29.35-29.35A29.35,29.35,0,0,1,421.17,129Z"/><path class="cls-4" d="M367.65,153.17"/><path class="cls-5" d="M264,165.89a60.44,60.44,0,0,0,85.53.69"/><g class="cls-6"><path class="cls-4" d="M508.67,724.38A99.65,99.65,0,1,0,409,824,99.65,99.65,0,0,0,508.67,724.38Zm-23.79,0A75.86,75.86,0,1,1,409,648.52,75.86,75.86,0,0,1,484.89,724.38Z"/></g><path class="cls-4" d="M456.31,724.38A47.29,47.29,0,1,0,409,771.67,47.29,47.29,0,0,0,456.31,724.38Zm-17.93,0A29.35,29.35,0,1,1,409,695,29.35,29.35,0,0,1,438.38,724.38Z"/><path class="cls-4" d="M355.5,670.86"/><path class="cls-5" d="M251.88,658.14a60.44,60.44,0,0,1,85.53-.69"/><path class="cls-4" d="M353.8,484.6a47.29,47.29,0,1,0,0,66.87A47.29,47.29,0,0,0,353.8,484.6ZM299.61,538.8a29.35,29.35,0,1,1,41.51,0A29.35,29.35,0,0,1,299.61,538.8Z"/><path class="cls-4" d="M161.94,371.1a47.29,47.29,0,1,0,47.29,47.29A47.29,47.29,0,0,0,161.94,371.1Zm0,76.64a29.35,29.35,0,1,1,29.35-29.35A29.35,29.35,0,0,1,161.94,447.74Z"/><path class="cls-4" d="M108.29,472A75.86,75.86,0,0,1,215.58,364.74h0l16.82-16.82h0a99.65,99.65,0,1,0,0,140.93L215.58,472A75.86,75.86,0,0,1,108.29,472Z"/><path class="cls-4" d="M427,383.2a47.29,47.29,0,1,0-66.87,0A47.29,47.29,0,0,0,427,383.2ZM372.82,329a29.35,29.35,0,1,1,0,41.51A29.35,29.35,0,0,1,372.82,329Z"/><g class="cls-7"><path class="cls-4" d="M414.92,516.56A145.46,145.46,0,1,0,269.46,371.1,145.46,145.46,0,0,0,414.92,516.56Zm0-267.74A122.28,122.28,0,1,1,292.63,371.1,122.28,122.28,0,0,1,414.92,248.82Z"/></g><line class="cls-8" x1="440.87" y1="349.77" x2="652.58" y2="349.77"/><line class="cls-8" x1="456.31" y1="131.29" x2="572.27" y2="247.26"/><line class="cls-8" x1="209.22" y1="418.39" x2="439.22" y2="418.39"/><line class="cls-8" x1="361.73" y1="540.94" x2="434.74" y2="613.95"/><line class="cls-8" x1="439.92" y1="418.39" x2="496.99" y2="521.03"/><line class="cls-8" x1="434.74" y1="613.95" x2="615.04" y2="613.95"/><line class="cls-8" x1="449.25" y1="724.38" x2="718.28" y2="724.38"/><line class="cls-8" x1="497.88" y1="521.03" x2="763.71" y2="521.03"/><line class="cls-8" x1="572.27" y1="247.26" x2="755.81" y2="247.26"/><circle class="cls-9" cx="755.81" cy="247.26" r="56.31"/><circle class="cls-9" cx="615.04" cy="613.95" r="33.7"/><circle class="cls-9" cx="755.81" cy="521.03" r="79.11"/><circle class="cls-9" cx="652.58" cy="349.77" r="65.69"/><circle class="cls-9" cx="718.28" cy="724.38" r="45.44"/></g></g></svg>